<?xml version="1.0" encoding="UTF-8"?>
<svg width="75.449mm" height="78.616mm" version="1.1" viewBox="0 0 75.449 78.616" xmlns="http://www.w3.org/2000/svg" xmlns:xlink="http://www.w3.org/1999/xlink">
 <defs>
  <linearGradient id="linearGradient15" x1="53.957" x2="146.99" y1="127.96" y2="127.96" gradientTransform="matrix(.85736 0 0 1.2003 18.857 -5.0933)" gradientUnits="userSpaceOnUse">
   <stop stop-color="#374e5d" offset="0"/>
  </linearGradient>
 </defs>
 <g transform="translate(-67.275 -109.19)">
  <path transform="matrix(.93822 0 0 .97761 6.487 3.3256)" x="65.760818" y="109.26082" width="78.478363" height="78.478363" d="m83.282 109.26h43.436a17.521 17.521 45 0 1 17.521 17.521v43.436a17.521 17.521 135 0 1-17.521 17.521h-43.436a17.521 17.521 45 0 1-17.521-17.521v-43.436a17.521 17.521 135 0 1 17.521-17.521z" fill="#e6f6f5" stroke="url(#linearGradient15)" stroke-miterlimit="5.3" stroke-width="1.939"/>
  <text x="104.70717" y="151.92442" fill="#374e61" font-family="Futura" font-size="14.111px" stroke-width="0" text-align="center" text-anchor="middle" style="line-height:0;mix-blend-mode:normal" xml:space="preserve"><tspan x="104.70717" y="151.92442" fill="#374e61" font-family="Futura" font-size="14.111px" stroke-width="0" style="line-height:0">airway</tspan></text>
 </g>
 <path transform="matrix(.58263 .32418 -.54884 .67837 39.455 -51.608)" x="80.444023" y="105.03156" width="3.7160001" height="30.283001" d="m82.167 105.03h0.27055a1.7227 1.7227 45 0 1 1.7227 1.7227v26.838a1.7227 1.7227 135 0 1-1.7227 1.7227h-0.27055a1.7227 1.7227 45 0 1-1.7227-1.7227v-26.838a1.7227 1.7227 135 0 1 1.7227-1.7227z" fill="#374e5d"/>
 <path transform="matrix(.59002 -.32 .54844 .67862 -60.096 1.3795)" x="80.444023" y="105.03156" width="3.7160001" height="30.283001" d="m82.167 105.03h0.27055a1.7227 1.7227 45 0 1 1.7227 1.7227v26.838a1.7227 1.7227 135 0 1-1.7227 1.7227h-0.27055a1.7227 1.7227 45 0 1-1.7227-1.7227v-26.838a1.7227 1.7227 135 0 1 1.7227-1.7227z" fill="#374e5d"/>
 <path transform="matrix(.447 -.42776 .5612 .67162 -82.774 -24.875)" x="80.444023" y="105.03156" width="3.7160001" height="30.283001" d="m82.167 105.03h0.27055a1.7227 1.7227 45 0 1 1.7227 1.7227v26.838a1.7227 1.7227 135 0 1-1.7227 1.7227h-0.27055a1.7227 1.7227 45 0 1-1.7227-1.7227v-26.838a1.7227 1.7227 135 0 1 1.7227-1.7227z" fill="#374e5d"/>
 <path transform="matrix(.47985 .39776 -.55846 .67371 81.991 -93.068)" x="80.444023" y="105.03156" width="3.7160001" height="30.283001" d="m82.167 105.03h0.27055a1.7227 1.7227 45 0 1 1.7227 1.7227v26.838a1.7227 1.7227 135 0 1-1.7227 1.7227h-0.27055a1.7227 1.7227 45 0 1-1.7227-1.7227v-26.838a1.7227 1.7227 135 0 1 1.7227-1.7227z" fill="#374e5d"/>
 <path transform="matrix(.62327 0 0 .87508 -13.572 -85.911)" x="80.444023" y="105.03156" width="3.7160001" height="30.283001" d="m82.167 105.03h0.27055a1.7227 1.7227 45 0 1 1.7227 1.7227v26.838a1.7227 1.7227 135 0 1-1.7227 1.7227h-0.27055a1.7227 1.7227 45 0 1-1.7227-1.7227v-26.838a1.7227 1.7227 135 0 1 1.7227-1.7227z" fill="#374e5d"/>
 <path transform="matrix(.62327 0 0 .87508 -13.572 -45.795)" x="80.444023" y="105.03156" width="3.7160001" height="30.283001" d="m82.167 105.03h0.27055a1.7227 1.7227 45 0 1 1.7227 1.7227v26.838a1.7227 1.7227 135 0 1-1.7227 1.7227h-0.27055a1.7227 1.7227 45 0 1-1.7227-1.7227v-26.838a1.7227 1.7227 135 0 1 1.7227-1.7227z" fill="#374e5d"/>
</svg>
